{
  "accessors": [
    {
      "bufferView": 2,
      "componentType": 5126,
      "count": 61,
      "max": [
        -0.021352000534534454,
        -2.6904280185699463,
        16.170040130615234
      ],
      "min": [
        -0.314316987991333,
        -2.8600809574127197,
        15.8806791305542
      ],
      "type": "VEC3"
    },
    {
      "bufferView": 2,
      "byteOffset": 732,
      "componentType": 5126,
      "count": 61,
      "max": [
        0.9849339723587036,
        0.011427000164985657,
        0.9465437531471252
      ],
      "min": [
        -0.9889142513275146,
        -0.9893612265586853,
        -0.9993360042572021
      ],
      "type": "VEC3"
    },
    {
      "bufferView": 1,
      "componentType": 5126,
      "count": 61,
      "max": [
        1.0745240449905396,
        1.0643819570541382
      ],
      "min": [
        -0.058414001017808914,
        -0.06438399851322174
      ],
      "type": "VEC2"
    },
    {
      "bufferView": 0,
      "componentType": 5125,
      "count": 324,
      "type": "SCALAR"
    },
    {
      "bufferView": 2,
      "byteOffset": 1464,
      "componentType": 5126,
      "count": 49,
      "max": [
        0.3198629915714264,
        -1.0434199571609497,
        17.54805564880371
      ],
      "min": [
        -1.3150850534439087,
        -3.219651937484741,
        16.572858810424805
      ],
      "type": "VEC3"
    },
    {
      "bufferView": 2,
      "byteOffset": 2052,
      "componentType": 5126,
      "count": 49,
      "max": [
        0.9924693703651428,
        0.9003196954727173,
        0.9969589710235596
      ],
      "min": [
        -0.9882100224494934,
        -0.9991194605827332,
        -0.4882061183452606
      ],
      "type": "VEC3"
    },
    {
      "bufferView": 1,
      "byteOffset": 488,
      "componentType": 5126,
      "count": 49,
      "max": [
        0.24504800140857697,
        0.9536709785461426
      ],
      "min": [
        0.004701999947428703,
        0.5130119919776917
      ],
      "type": "VEC2"
    },
    {
      "bufferView": 0,
      "byteOffset": 1296,
      "componentType": 5125,
      "count": 189,
      "type": "SCALAR"
    },
    {
      "bufferView": 2,
      "byteOffset": 2640,
      "componentType": 5126,
      "count": 61,
      "max": [
        -0.6491360068321228,
        -2.6786320209503174,
        16.148439407348633
      ],
      "min": [
        -0.942101001739502,
        -2.8482840061187744,
        15.859079360961914
      ],
      "type": "VEC3"
    },
    {
      "bufferView": 2,
      "byteOffset": 3372,
      "componentType": 5126,
      "count": 61,
      "max": [
        0.9849318861961365,
        0.011457999236881733,
        0.9465574622154236
      ],
      "min": [
        -0.9889152646064758,
        -0.9893611073493958,
        -0.9993358850479126
      ],
      "type": "VEC3"
    },
    {
      "bufferView": 1,
      "byteOffset": 880,
      "componentType": 5126,
      "count": 61,
      "max": [
        1.0720690488815308,
        1.0643819570541382
      ],
      "min": [
        -0.060867998749017715,
        -0.06438399851322174
      ],
      "type": "VEC2"
    },
    {
      "bufferView": 0,
      "byteOffset": 2052,
      "componentType": 5125,
      "count": 324,
      "type": "SCALAR"
    },
    {
      "bufferView": 2,
      "byteOffset": 4104,
      "componentType": 5126,
      "count": 424,
      "max": [
        3.468173027038574,
        3.401165008544922,
        13.710917472839355
      ],
      "min": [
        -3.0110700130462646,
        -3.2895140647888184,
        3.412368059158325
      ],
      "type": "VEC3"
    },
    {
      "bufferView": 2,
      "byteOffset": 9192,
      "componentType": 5126,
      "count": 424,
      "max": [
        0.9888628721237183,
        0.9964727759361267,
        0.993910551071167
      ],
      "min": [
        -0.991818368434906,
        -0.9974022507667542,
        -0.9888100028038025
      ],
      "type": "VEC3"
    },
    {
      "bufferView": 1,
      "byteOffset": 1368,
      "componentType": 5126,
      "count": 424,
      "max": [
        0.9704520106315613,
        0.9249839782714844
      ],
      "min": [
        0.01119999960064888,
        0.007395000196993351
      ],
      "type": "VEC2"
    },
    {
      "bufferView": 0,
      "byteOffset": 3348,
      "componentType": 5125,
      "count": 1044,
      "type": "SCALAR"
    },
    {
      "bufferView": 2,
      "byteOffset": 14280,
      "componentType": 5126,
      "count": 267,
      "max": [
        1.8420209884643555,
        1.014515995979309,
        15.31649398803711
      ],
      "min": [
        -1.885424017906189,
        -2.3199830055236816,
        11.112663269042969
      ],
      "type": "VEC3"
    },
    {
      "bufferView": 2,
      "byteOffset": 17484,
      "componentType": 5126,
      "count": 267,
      "max": [
        0.9979721307754517,
        0.9966785311698914,
        0.9950456619262695
      ],
      "min": [
        -0.9672648906707764,
        -0.9959767460823059,
        -0.7659597992897034
      ],
      "type": "VEC3"
    },
    {
      "bufferView": 1,
      "byteOffset": 4760,
      "componentType": 5126,
      "count": 267,
      "max": [
        -0.027124999091029167,
        0.9857280254364014
      ],
      "min": [
        -0.9866309762001038,
        0.006035999860614538
      ],
      "type": "VEC2"
    },
    {
      "bufferView": 0,
      "byteOffset": 7524,
      "componentType": 5125,
      "count": 936,
      "type": "SCALAR"
    },
    {
      "bufferView": 2,
      "byteOffset": 20688,
      "componentType": 5126,
      "count": 948,
      "max": [
        3.524374008178711,
        4.54684591293335,
        13.50066089630127
      ],
      "min": [
        -3.6238648891448975,
        -4.163466930389404,
        -0.019620999693870544
      ],
      "type": "VEC3"
    },
    {
      "bufferView": 2,
      "byteOffset": 32064,
      "componentType": 5126,
      "count": 948,
      "max": [
        0.9993572235107422,
        0.9993188977241516,
        0.9441627860069275
      ],
      "min": [
        -0.9987242221832275,
        -0.9964763522148132,
        -0.9999302625656128
      ],
      "type": "VEC3"
    },
    {
      "bufferView": 1,
      "byteOffset": 6896,
      "componentType": 5126,
      "count": 948,
      "max": [
        0.9886190295219421,
        0.8030660152435303
      ],
      "min": [
        0.01119999960064888,
        0.017552999779582024
      ],
      "type": "VEC2"
    },
    {
      "bufferView": 0,
      "byteOffset": 11268,
      "componentType": 5125,
      "count": 4158,
      "type": "SCALAR"
    },
    {
      "bufferView": 2,
      "byteOffset": 43440,
      "componentType": 5126,
      "count": 728,
      "max": [
        3.453932046890259,
        3.9946420192718506,
        15.633160591125488
      ],
      "min": [
        -3.197779893875122,
        -3.231635093688965,
        2.757046937942505
      ],
      "type": "VEC3"
    },
    {
      "bufferView": 2,
      "byteOffset": 52176,
      "componentType": 5126,
      "count": 728,
      "max": [
        0.9976418614387512,
        0.9978126287460327,
        0.9921248555183411
      ],
      "min": [
        -0.9930586218833923,
        -0.9974022507667542,
        -0.9957939982414246
      ],
      "type": "VEC3"
    },
    {
      "bufferView": 1,
      "byteOffset": 14480,
      "componentType": 5126,
      "count": 728,
      "max": [
        0.9913089871406555,
        0.9953529834747314
      ],
      "min": [
        0.01119999960064888,
        0.014689999632537365
      ],
      "type": "VEC2"
    },
    {
      "bufferView": 0,
      "byteOffset": 27900,
      "componentType": 5125,
      "count": 2802,
      "type": "SCALAR"
    },
    {
      "bufferView": 2,
      "byteOffset": 60912,
      "componentType": 5126,
      "count": 386,
      "max": [
        1.3426220417022705,
        2.1596829891204834,
        13.257779121398926
      ],
      "min": [
        -3.0401690006256104,
        -2.3751890659332275,
        6.983109951019287
      ],
      "type": "VEC3"
    },
    {
      "bufferView": 2,
      "byteOffset": 65544,
      "componentType": 5126,
      "count": 386,
      "max": [
        0.9210929870605469,
        0.9820453524589539,
        0.9955030083656311
      ],
      "min": [
        -0.9327384233474731,
        -0.9820457696914673,
        -0.9928634762763977
      ],
      "type": "VEC3"
    },
    {
      "bufferView": 1,
      "byteOffset": 20304,
      "componentType": 5126,
      "count": 386,
      "max": [
        -0.004503999836742878,
        0.9901999831199646
      ],
      "min": [
        -1.8842530250549316,
        0.0021379999816417694
      ],
      "type": "VEC2"
    },
    {
      "bufferView": 0,
      "byteOffset": 39108,
      "componentType": 5125,
      "count": 732,
      "type": "SCALAR"
    },
    {
      "bufferView": 2,
      "byteOffset": 70176,
      "componentType": 5126,
      "count": 464,
      "max": [
        0.7091749906539917,
        -0.11429999768733978,
        17.670490264892578
      ],
      "min": [
        -1.5793009996414185,
        -3.249674081802368,
        14.995723724365234
      ],
      "type": "VEC3"
    },
    {
      "bufferView": 2,
      "byteOffset": 75744,
      "componentType": 5126,
      "count": 464,
      "max": [
        0.9961472153663635,
        0.9905228614807129,
        0.9983303546905518
      ],
      "min": [
        -0.9961472153663635,
        -0.9905228614807129,
        -0.9983306527137756
      ],
      "type": "VEC3"
    },
    {
      "bufferView": 1,
      "byteOffset": 23392,
      "componentType": 5126,
      "count": 464,
      "max": [
        0.9937379956245422,
        0.9913840293884277
      ],
      "min": [
        0.26283198595046997,
        -0.2564530074596405
      ],
      "type": "VEC2"
    },
    {
      "bufferView": 0,
      "byteOffset": 42036,
      "componentType": 5125,
      "count": 996,
      "type": "SCALAR"
    },
    {
      "bufferView": 2,
      "byteOffset": 81312,
      "componentType": 5126,
      "count": 1075,
      "max": [
        0.47776201367378235,
        2.6968929767608643,
        16.830530166625977
      ],
      "min": [
        -6.541971206665039,
        -3.1229379177093506,
        13.609728813171387
      ],
      "type": "VEC3"
    },
    {
      "bufferView": 2,
      "byteOffset": 94212,
      "componentType": 5126,
      "count": 1075,
      "max": [
        0.9993104934692383,
        0.9991548657417297,
        0.999991774559021
      ],
      "min": [
        -0.9999489784240723,
        -0.999836266040802,
        -0.9993820190429688
      ],
      "type": "VEC3"
    },
    {
      "bufferView": 1,
      "byteOffset": 27104,
      "componentType": 5126,
      "count": 1075,
      "max": [
        0.9958940148353577,
        1.8528989553451538
      ],
      "min": [
        -0.3787919878959656,
        0.00598399993032217
      ],
      "type": "VEC2"
    },
    {
      "bufferView": 0,
      "byteOffset": 46020,
      "componentType": 5125,
      "count": 4722,
      "type": "SCALAR"
    }
  ],
  "asset": {
    "extras": {
      "author": "Waffles (https://sketchfab.com/jkimmel694)",
      "license": "CC-BY-4.0 (http://creativecommons.org/licenses/by/4.0/)",
      "source": "https://sketchfab.com/3d-models/wii-super-smash-bros-brawl-solid-snake-troph-33855d06fcbe4daa947c6474b352ad80",
      "title": "Wii - Super Smash Bros Brawl - Solid Snake Troph"
    },
    "generator": "Sketchfab-16.68.0",
    "version": "2.0"
  },
  "bufferViews": [
    {
      "buffer": 0,
      "byteLength": 64908,
      "name": "floatBufferViews",
      "target": 34963
    },
    {
      "buffer": 0,
      "byteLength": 35704,
      "byteOffset": 64908,
      "byteStride": 8,
      "name": "floatBufferViews",
      "target": 34962
    },
    {
      "buffer": 0,
      "byteLength": 107112,
      "byteOffset": 100612,
      "byteStride": 12,
      "name": "floatBufferViews",
      "target": 34962
    }
  ],
  "buffers": [
    {
      "byteLength": 207724,
      "uri": "scene.bin"
    }
  ],
  "images": [
    {
      "uri": "textures/mat1_baseColor.png"
    },
    {
      "uri": "textures/mat10_baseColor.png"
    },
    {
      "uri": "textures/mat3_baseColor.png"
    },
    {
      "uri": "textures/mat4_baseColor.png"
    },
    {
      "uri": "textures/mat5_baseColor.png"
    }
  ],
  "materials": [
    {
      "doubleSided": true,
      "name": "mat1",
      "pbrMetallicRoughness": {
        "baseColorTexture": {
          "index": 0
        },
        "metallicFactor": 0.0
      }
    },
    {
      "doubleSided": true,
      "name": "mat10",
      "pbrMetallicRoughness": {
        "baseColorTexture": {
          "index": 1
        },
        "metallicFactor": 0.0
      }
    },
    {
      "doubleSided": true,
      "name": "mat2",
      "pbrMetallicRoughness": {
        "baseColorTexture": {
          "index": 0
        },
        "metallicFactor": 0.0
      }
    },
    {
      "doubleSided": true,
      "name": "mat3",
      "pbrMetallicRoughness": {
        "baseColorTexture": {
          "index": 2
        },
        "metallicFactor": 0.0
      }
    },
    {
      "doubleSided": true,
      "name": "mat4",
      "pbrMetallicRoughness": {
        "baseColorTexture": {
          "index": 3
        },
        "metallicFactor": 0.0
      }
    },
    {
      "doubleSided": true,
      "name": "mat5",
      "pbrMetallicRoughness": {
        "baseColorTexture": {
          "index": 4
        },
        "metallicFactor": 0.0
      }
    },
    {
      "doubleSided": true,
      "name": "mat6",
      "pbrMetallicRoughness": {
        "baseColorTexture": {
          "index": 3
        },
        "metallicFactor": 0.0
      }
    },
    {
      "doubleSided": true,
      "name": "mat7",
      "pbrMetallicRoughness": {
        "baseColorTexture": {
          "index": 3
        },
        "metallicFactor": 0.0
      }
    },
    {
      "doubleSided": true,
      "name": "mat8",
      "pbrMetallicRoughness": {
        "baseColorTexture": {
          "index": 1
        },
        "metallicFactor": 0.0
      }
    },
    {
      "doubleSided": true,
      "name": "mat9",
      "pbrMetallicRoughness": {
        "baseColorTexture": {
          "index": 1
        },
        "metallicFactor": 0.0
      }
    }
  ],
  "meshes": [
    {
      "name": "Object_0",
      "primitives": [
        {
          "attributes": {
            "NORMAL": 1,
            "POSITION": 0,
            "TEXCOORD_0": 2
          },
          "indices": 3,
          "material": 0,
          "mode": 4
        }
      ]
    },
    {
      "name": "Object_1",
      "primitives": [
        {
          "attributes": {
            "NORMAL": 5,
            "POSITION": 4,
            "TEXCOORD_0": 6
          },
          "indices": 7,
          "material": 1,
          "mode": 4
        }
      ]
    },
    {
      "name": "Object_2",
      "primitives": [
        {
          "attributes": {
            "NORMAL": 9,
            "POSITION": 8,
            "TEXCOORD_0": 10
          },
          "indices": 11,
          "material": 2,
          "mode": 4
        }
      ]
    },
    {
      "name": "Object_3",
      "primitives": [
        {
          "attributes": {
            "NORMAL": 13,
            "POSITION": 12,
            "TEXCOORD_0": 14
          },
          "indices": 15,
          "material": 4,
          "mode": 4
        }
      ]
    },
    {
      "name": "Object_4",
      "primitives": [
        {
          "attributes": {
            "NORMAL": 17,
            "POSITION": 16,
            "TEXCOORD_0": 18
          },
          "indices": 19,
          "material": 5,
          "mode": 4
        }
      ]
    },
    {
      "name": "Object_5",
      "primitives": [
        {
          "attributes": {
            "NORMAL": 21,
            "POSITION": 20,
            "TEXCOORD_0": 22
          },
          "indices": 23,
          "material": 6,
          "mode": 4
        }
      ]
    },
    {
      "name": "Object_6",
      "primitives": [
        {
          "attributes": {
            "NORMAL": 25,
            "POSITION": 24,
            "TEXCOORD_0": 26
          },
          "indices": 27,
          "material": 7,
          "mode": 4
        }
      ]
    },
    {
      "name": "Object_7",
      "primitives": [
        {
          "attributes": {
            "NORMAL": 29,
            "POSITION": 28,
            "TEXCOORD_0": 30
          },
          "indices": 31,
          "material": 3,
          "mode": 4
        }
      ]
    },
    {
      "name": "Object_8",
      "primitives": [
        {
          "attributes": {
            "NORMAL": 33,
            "POSITION": 32,
            "TEXCOORD_0": 34
          },
          "indices": 35,
          "material": 8,
          "mode": 4
        }
      ]
    },
    {
      "name": "Object_9",
      "primitives": [
        {
          "attributes": {
            "NORMAL": 37,
            "POSITION": 36,
            "TEXCOORD_0": 38
          },
          "indices": 39,
          "material": 9,
          "mode": 4
        }
      ]
    }
  ],
  "nodes": [
    {
      "children": [
        1
      ],
      "matrix": [
        1.0,
        0.0,
        0.0,
        0.0,
        0.0,
        2.220446049250313e-16,
        -1.0,
        0.0,
        0.0,
        1.0,
        2.220446049250313e-16,
        0.0,
        0.0,
        0.0,
        0.0,
        1.0
      ],
      "name": "Sketchfab_model"
    },
    {
      "children": [
        2,
        3,
        4,
        5,
        6,
        7,
        8,
        9,
        10,
        11
      ],
      "name": "DolSnakeR1.obj.cleaner.materialmerger.gles"
    },
    {
      "mesh": 0,
      "name": "Object_2"
    },
    {
      "mesh": 1,
      "name": "Object_3"
    },
    {
      "mesh": 2,
      "name": "Object_4"
    },
    {
      "mesh": 3,
      "name": "Object_5"
    },
    {
      "mesh": 4,
      "name": "Object_6"
    },
    {
      "mesh": 5,
      "name": "Object_7"
    },
    {
      "mesh": 6,
      "name": "Object_8"
    },
    {
      "mesh": 7,
      "name": "Object_9"
    },
    {
      "mesh": 8,
      "name": "Object_10"
    },
    {
      "mesh": 9,
      "name": "Object_11"
    }
  ],
  "samplers": [
    {
      "magFilter": 9729,
      "minFilter": 9987,
      "wrapS": 10497,
      "wrapT": 10497
    }
  ],
  "scene": 0,
  "scenes": [
    {
      "name": "Sketchfab_Scene",
      "nodes": [
        0
      ]
    }
  ],
  "textures": [
    {
      "sampler": 0,
      "source": 0
    },
    {
      "sampler": 0,
      "source": 1
    },
    {
      "sampler": 0,
      "source": 2
    },
    {
      "sampler": 0,
      "source": 3
    },
    {
      "sampler": 0,
      "source": 4
    }
  ]
}
